<svg xmlns="http://www.w3.org/2000/svg" width="18" height="18" viewBox="0 0 18 18" fill="none"><path fill-rule="evenodd" clip-rule="evenodd" d="M9 1.5C9.3936 1.5 9.71267 1.81907 9.71267 2.21267V4.9276C9.71267 5.3212 9.3936 5.64027 9 5.64027C8.6064 5.64027 8.28733 5.3212 8.28733 4.9276V2.21267C8.28733 1.81907 8.6064 1.5 9 1.5ZM3.69675 3.69675C3.97506 3.41843 4.4263 3.41843 4.70461 3.69675L6.62407 5.6162C6.90238 5.89452 6.90238 6.34575 6.62407 6.62407C6.34575 6.90238 5.89452 6.90238 5.6162 6.62407L3.69675 4.70461C3.41843 4.4263 3.41843 3.97506 3.69675 3.69675ZM14.3033 3.69674C14.5816 3.97506 14.5816 4.4263 14.3033 4.70461L12.3838 6.62407C12.1055 6.90238 11.6542 6.90238 11.3759 6.62407C11.0976 6.34575 11.0976 5.89452 11.3759 5.6162L13.2954 3.69675C13.5737 3.41843 14.0249 3.41843 14.3033 3.69674ZM1.5 9C1.5 8.6064 1.81907 8.28733 2.21267 8.28733H4.9276C5.3212 8.28733 5.64027 8.6064 5.64027 9C5.64027 9.3936 5.3212 9.71267 4.9276 9.71267H2.21267C1.81907 9.71267 1.5 9.3936 1.5 9ZM12.3597 9C12.3597 8.6064 12.6788 8.28733 13.0724 8.28733H15.7873C16.1809 8.28733 16.5 8.6064 16.5 9C16.5 9.3936 16.1809 9.71267 15.7873 9.71267H13.0724C12.6788 9.71267 12.3597 9.3936 12.3597 9ZM6.62407 11.3759C6.90238 11.6542 6.90238 12.1055 6.62407 12.3838L4.70529 14.3026C4.42698 14.5809 3.97574 14.5809 3.69742 14.3026C3.41911 14.0243 3.41911 13.573 3.69742 13.2947L5.6162 11.3759C5.89452 11.0976 6.34575 11.0976 6.62407 11.3759ZM11.3759 11.3759C11.6542 11.0976 12.1055 11.0976 12.3838 11.3759L14.3033 13.2954C14.5816 13.5737 14.5816 14.0249 14.3033 14.3033C14.0249 14.5816 13.5737 14.5816 13.2954 14.3033L11.3759 12.3838C11.0976 12.1055 11.0976 11.6542 11.3759 11.3759ZM9 12.3597C9.3936 12.3597 9.71267 12.6788 9.71267 13.0724V15.7873C9.71267 16.1809 9.3936 16.5 9 16.5C8.6064 16.5 8.28733 16.1809 8.28733 15.7873V13.0724C8.28733 12.6788 8.6064 12.3597 9 12.3597Z" fill="white"></path></svg>